HIERARCHY
ROOT Hips
{
	OFFSET -0.087744 88.518600 4.106688
	CHANNELS 6 Xposition Yposition Zposition Zrotation Yrotation Xrotation 
	JOINT Spine
	{
		OFFSET 0.000000 8.814246 -2.080107
		CHANNELS 3 Zrotation Yrotation Xrotation
		JOINT Spine1
		{
			OFFSET -0.000000 8.844141 -0.000000
			CHANNELS 3 Zrotation Yrotation Xrotation
			JOINT Spine2
			{
				OFFSET 0.000000 11.682268 0.000000
				CHANNELS 3 Zrotation Yrotation Xrotation
				JOINT Spine3
				{
					OFFSET 0.000000 11.746700 0.000000
					CHANNELS 3 Zrotation Yrotation Xrotation
					JOINT Neck
					{
						OFFSET 0.000000 17.658264 -0.000000
						CHANNELS 3 Zrotation Yrotation Xrotation
						JOINT Neck1
						{
							OFFSET -0.000000 5.101515 -0.000000
							CHANNELS 3 Zrotation Yrotation Xrotation
							JOINT Head
							{
								OFFSET -0.000000 5.101515 -0.000000
								CHANNELS 3 Zrotation Yrotation Xrotation
								JOINT HeadEnd
								{
									OFFSET 0.000000 11.655085 0.000000
									CHANNELS 3 Zrotation Yrotation Xrotation
									End Site
									{
										OFFSET 0.000000 0.000000 0.000000
									}
								}
							}
						}
					}
					JOINT RightShoulder
					{
						OFFSET -2.625389 11.175210 0.000000
						CHANNELS 3 Zrotation Yrotation Xrotation
						JOINT RightArm
						{
							OFFSET 0.000000 10.434715 -0.000000
							CHANNELS 3 Zrotation Yrotation Xrotation
							JOINT RightForeArm
							{
								OFFSET -0.000000 29.628420 0.000000
								CHANNELS 3 Zrotation Yrotation Xrotation
								JOINT RightHand
								{
									OFFSET -0.000000 22.857611 0.000000
									CHANNELS 3 Zrotation Yrotation Xrotation
									JOINT RightHandThumb1
									{
										OFFSET -2.867323 3.959563 2.944291
										CHANNELS 3 Zrotation Yrotation Xrotation
										JOINT RightHandThumb2
										{
											OFFSET -0.000000 3.350399 0.000000
											CHANNELS 3 Zrotation Yrotation Xrotation
											JOINT RightHandThumb3
											{
												OFFSET 0.000000 3.756509 -0.000000
												CHANNELS 3 Zrotation Yrotation Xrotation
												JOINT RightHandThumb4
												{
													OFFSET -0.000000 3.147345 0.000000
													CHANNELS 3 Zrotation Yrotation Xrotation
													End Site
													{
														OFFSET 0.000000 0.000000 0.000000
													}
												}
											}
										}
									}
									JOINT RightHandIndex1
									{
										OFFSET -0.086752 10.030893 2.345280
										CHANNELS 3 Zrotation Yrotation Xrotation
										JOINT RightHandIndex2
										{
											OFFSET 0.000000 4.061090 -0.000000
											CHANNELS 3 Zrotation Yrotation Xrotation
											JOINT RightHandIndex3
											{
												OFFSET 0.000000 3.248873 -0.000000
												CHANNELS 3 Zrotation Yrotation Xrotation
												JOINT RightHandIndex4
												{
													OFFSET 0.000000 2.639709 -0.000000
													CHANNELS 3 Zrotation Yrotation Xrotation
													End Site
													{
														OFFSET 0.000000 0.000000 0.000000
													}
												}
											}
										}
									}
									JOINT RightHandMiddle1
									{
										OFFSET 0.104102 9.502952 0.006768
										CHANNELS 3 Zrotation Yrotation Xrotation
										JOINT RightHandMiddle2
										{
											OFFSET 0.000000 4.568727 -0.000000
											CHANNELS 3 Zrotation Yrotation Xrotation
											JOINT RightHandMiddle3
											{
												OFFSET -0.000000 3.654981 0.000000
												CHANNELS 3 Zrotation Yrotation Xrotation
												JOINT RightHandMiddle4
												{
													OFFSET 0.000000 2.741236 0.000000
													CHANNELS 3 Zrotation Yrotation Xrotation
													End Site
													{
														OFFSET 0.000000 0.000000 0.000000
													}
												}
											}
										}
									}
									JOINT RightHandRing1
									{
										OFFSET 0.086752 8.921708 -2.267442
										CHANNELS 3 Zrotation Yrotation Xrotation
										JOINT RightHandRing2
										{
											OFFSET 0.000000 4.061090 -0.000000
											CHANNELS 3 Zrotation Yrotation Xrotation
											JOINT RightHandRing3
											{
												OFFSET -0.000000 3.654981 0.000000
												CHANNELS 3 Zrotation Yrotation Xrotation
												JOINT RightHandRing4
												{
													OFFSET 0.000000 2.741236 -0.000000
													CHANNELS 3 Zrotation Yrotation Xrotation
													End Site
													{
														OFFSET 0.000000 0.000000 0.000000
													}
												}
											}
										}
									}
									JOINT RightHandPinky1
									{
										OFFSET -0.173504 7.976997 -4.467199
										CHANNELS 3 Zrotation Yrotation Xrotation
										JOINT RightHandPinky2
										{
											OFFSET 0.000000 3.350399 0.000000
											CHANNELS 3 Zrotation Yrotation Xrotation
											JOINT RightHandPinky3
											{
												OFFSET 0.000000 2.842763 -0.000000
												CHANNELS 3 Zrotation Yrotation Xrotation
												JOINT RightHandPinky4
												{
													OFFSET -0.000000 2.639709 -0.000000
													CHANNELS 3 Zrotation Yrotation Xrotation
													End Site
													{
														OFFSET 0.000000 0.000000 0.000000
													}
												}
											}
										}
									}
									JOINT RightForeArmEnd
									{
										OFFSET 0.000000 0.000000 0.000000
										CHANNELS 3 Zrotation Yrotation Xrotation
										End Site
										{
											OFFSET 0.000000 0.000000 0.000000
										}
									}
								}
								JOINT RightArmEnd
								{
									OFFSET 0.000000 0.000000 0.000000
									CHANNELS 3 Zrotation Yrotation Xrotation
									End Site
									{
										OFFSET 0.000000 0.000000 0.000000
									}
								}
							}
						}
					}
					JOINT LeftShoulder
					{
						OFFSET 2.625389 11.175210 -0.000000
						CHANNELS 3 Zrotation Yrotation Xrotation
						JOINT LeftArm
						{
							OFFSET -0.000000 10.813635 0.000000
							CHANNELS 3 Zrotation Yrotation Xrotation
							JOINT LeftForeArm
							{
								OFFSET -0.000000 28.724781 0.000000
								CHANNELS 3 Zrotation Yrotation Xrotation
								JOINT LeftHand
								{
									OFFSET 0.644384 25.716167 -0.328871
									CHANNELS 3 Zrotation Yrotation Xrotation
									JOINT LeftHandThumb1
									{
										OFFSET 2.867323 3.959563 2.944291
										CHANNELS 3 Zrotation Yrotation Xrotation
										JOINT LeftHandThumb2
										{
											OFFSET -0.000000 3.350399 0.000000
											CHANNELS 3 Zrotation Yrotation Xrotation
											JOINT LeftHandThumb3
											{
												OFFSET -0.000000 3.756509 -0.000000
												CHANNELS 3 Zrotation Yrotation Xrotation
												JOINT LeftHandThumb4
												{
													OFFSET 0.000000 3.100000 -0.000000
													CHANNELS 3 Zrotation Yrotation Xrotation
													End Site
													{
														OFFSET 0.000000 0.000000 0.000000
													}
												}
											}
										}
									}
									JOINT LeftHandIndex1
									{
										OFFSET 0.086752 10.030893 2.345280
										CHANNELS 3 Zrotation Yrotation Xrotation
										JOINT LeftHandIndex2
										{
											OFFSET -0.000000 4.061090 0.000000
											CHANNELS 3 Zrotation Yrotation Xrotation
											JOINT LeftHandIndex3
											{
												OFFSET 0.000000 3.248873 0.000000
												CHANNELS 3 Zrotation Yrotation Xrotation
												JOINT LeftHandIndex4
												{
													OFFSET 0.000000 2.639709 -0.000000
													CHANNELS 3 Zrotation Yrotation Xrotation
													End Site
													{
														OFFSET 0.000000 0.000000 0.000000
													}
												}
											}
										}
									}
									JOINT LeftHandMiddle1
									{
										OFFSET -0.104102 9.502952 0.006768
										CHANNELS 3 Zrotation Yrotation Xrotation
										JOINT LeftHandMiddle2
										{
											OFFSET 0.000000 4.568727 -0.000000
											CHANNELS 3 Zrotation Yrotation Xrotation
											JOINT LeftHandMiddle3
											{
												OFFSET 0.000000 3.654981 0.000000
												CHANNELS 3 Zrotation Yrotation Xrotation
												JOINT LeftHandMiddle4
												{
													OFFSET -0.000000 2.741236 -0.000000
													CHANNELS 3 Zrotation Yrotation Xrotation
													End Site
													{
														OFFSET 0.000000 0.000000 0.000000
													}
												}
											}
										}
									}
									JOINT LeftHandRing1
									{
										OFFSET -0.086752 8.921708 -2.267442
										CHANNELS 3 Zrotation Yrotation Xrotation
										JOINT LeftHandRing2
										{
											OFFSET -0.000000 4.061090 -0.000000
											CHANNELS 3 Zrotation Yrotation Xrotation
											JOINT LeftHandRing3
											{
												OFFSET 0.000000 3.654981 0.000000
												CHANNELS 3 Zrotation Yrotation Xrotation
												JOINT LeftHandRing4
												{
													OFFSET -0.000000 2.741236 -0.000000
													CHANNELS 3 Zrotation Yrotation Xrotation
													End Site
													{
														OFFSET 0.000000 0.000000 0.000000
													}
												}
											}
										}
									}
									JOINT LeftHandPinky1
									{
										OFFSET 0.173504 7.976997 -4.467199
										CHANNELS 3 Zrotation Yrotation Xrotation
										JOINT LeftHandPinky2
										{
											OFFSET 0.000000 3.350399 0.000000
											CHANNELS 3 Zrotation Yrotation Xrotation
											JOINT LeftHandPinky3
											{
												OFFSET -0.000000 2.842763 -0.000000
												CHANNELS 3 Zrotation Yrotation Xrotation
												JOINT LeftHandPinky4
												{
													OFFSET -0.000000 2.639709 -0.000000
													CHANNELS 3 Zrotation Yrotation Xrotation
													End Site
													{
														OFFSET 0.000000 0.000000 0.000000
													}
												}
											}
										}
									}
									JOINT LeftForeArmEnd
									{
										OFFSET 0.000000 0.000000 0.000000
										CHANNELS 3 Zrotation Yrotation Xrotation
										End Site
										{
											OFFSET 0.000000 0.000000 0.000000
										}
									}
								}
								JOINT LeftArmEnd
								{
									OFFSET 0.000000 0.000000 0.000000
									CHANNELS 3 Zrotation Yrotation Xrotation
									End Site
									{
										OFFSET 0.000000 0.000000 0.000000
									}
								}
							}
						}
					}
				}
			}
		}
	}
	JOINT RightUpLeg
	{
		OFFSET -11.289943 0.000000 0.000000
		CHANNELS 3 Zrotation Yrotation Xrotation
		JOINT RightLeg
		{
			OFFSET -0.000000 -38.200325 -0.000000
			CHANNELS 3 Zrotation Yrotation Xrotation
			JOINT RightFoot
			{
				OFFSET -0.000000 -39.900856 -0.000000
				CHANNELS 3 Zrotation Yrotation Xrotation
				JOINT RightToeBase
				{
					OFFSET 0.000000 0.000000 15.261641
					CHANNELS 3 Zrotation Yrotation Xrotation
					JOINT RightToeBaseEnd
					{
						OFFSET 0.000000 0.000000 7.370709
						CHANNELS 3 Zrotation Yrotation Xrotation
						End Site
						{
							OFFSET 0.000000 0.000000 0.000000
						}
					}
				}
				JOINT RightLegEnd
				{
					OFFSET 0.000000 0.000000 0.000000
					CHANNELS 3 Zrotation Yrotation Xrotation
					End Site
					{
						OFFSET 0.000000 0.000000 0.000000
					}
				}
			}
			JOINT RightUpLegEnd
			{
				OFFSET 0.000000 0.000000 0.000000
				CHANNELS 3 Zrotation Yrotation Xrotation
				End Site
				{
					OFFSET 0.000000 0.000000 0.000000
				}
			}
		}
	}
	JOINT LeftUpLeg
	{
		OFFSET 11.315661 0.000000 -0.000000
		CHANNELS 3 Zrotation Yrotation Xrotation
		JOINT LeftLeg
		{
			OFFSET 0.000000 -38.200325 0.000000
			CHANNELS 3 Zrotation Yrotation Xrotation
			JOINT LeftFoot
			{
				OFFSET 0.000000 -39.900856 -0.000000
				CHANNELS 3 Zrotation Yrotation Xrotation
				JOINT LeftToeBase
				{
					OFFSET 0.000000 0.000000 15.261641
					CHANNELS 3 Zrotation Yrotation Xrotation
					JOINT LeftToeBaseEnd
					{
						OFFSET -0.000000 0.000000 7.539996
						CHANNELS 3 Zrotation Yrotation Xrotation
						End Site
						{
							OFFSET 0.000000 0.000000 0.000000
						}
					}
				}
				JOINT LeftLegEnd
				{
					OFFSET 0.000000 0.000000 0.000000
					CHANNELS 3 Zrotation Yrotation Xrotation
					End Site
					{
						OFFSET 0.000000 0.000000 0.000000
					}
				}
			}
			JOINT LeftUpLegEnd
			{
				OFFSET 0.000000 0.000000 0.000000
				CHANNELS 3 Zrotation Yrotation Xrotation
				End Site
				{
					OFFSET 0.000000 0.000000 0.000000
				}
			}
		}
	}
}
MOTION
Frames: 4
Frame Time: 0.016667
-0.087744 88.518600 4.106688 0.068919 0.010845 -8.942659 0.442413 -0.081069 6.970063 -1.393128 0.231170 0.120594 0.170773 -1.686916 3.633183 0.138037 -0.360124 1.632820 2.669741 1.360534 7.336633 0.504304 2.812674 -2.138667 -0.849185 -0.825950 -18.014040 0.000000 0.000000 0.000000 93.328857 -0.532019 9.249256 66.106537 -37.119999 4.142115 -0.118903 9.345549 21.275049 6.844851 17.264309 -6.195918 11.236529 -1.888869 39.607235 0.000000 0.000000 -27.360001 0.000000 0.000000 -18.999998 0.000000 0.000000 0.000000 16.490267 0.000000 -10.411167 11.543185 0.000000 0.000000 11.543185 0.000000 0.000000 0.000000 0.000000 0.000000 15.680838 0.000000 -10.611974 10.976586 0.000000 0.000000 10.976586 0.000000 0.000000 0.000000 0.000000 0.000000 17.926441 -0.000000 -9.075776 12.548511 0.000000 0.000000 12.548511 0.000000 0.000000 0.000000 0.000000 0.000000 19.209045 0.000000 -9.362014 13.446335 0.000000 0.000000 13.446335 0.000000 0.000000 0.000000 0.000000 0.000000 0.000000 0.000000 0.000000 0.000000 0.000000 0.000000 -92.264565 0.184447 4.508586 -67.528290 31.026754 -4.429007 -0.724142 -2.563973 37.835682 -1.518325 -21.259672 -14.755241 -10.637670 1.840800 39.870987 0.000000 0.000000 -25.919998 0.000000 0.000000 -18.000004 0.000000 0.000000 0.000000 -13.737988 0.000000 -10.271245 -9.616590 0.000000 0.000000 -9.616590 0.000000 0.000000 0.000000 0.000000 0.000000 -13.566373 0.000000 -10.909574 -9.496462 0.000000 0.000000 -9.496462 0.000000 0.000000 0.000000 0.000000 0.000000 -16.906538 -0.000000 -11.246544 -11.834577 0.000000 0.000000 -11.834577 0.000000 0.000000 0.000000 0.000000 0.000000 -19.165680 -0.000000 -11.938169 -13.415976 0.000000 0.000000 -13.415976 0.000000 0.000000 0.000000 0.000000 0.000000 0.000000 0.000000 0.000000 0.000000 0.000000 0.000000 -1.938379 -12.547268 14.781528 -0.051716 -0.791252 3.432337 -0.790947 -7.985100 17.498075 -0.970069 1.135202 -17.740036 0.000000 0.000000 0.000000 0.000000 0.000000 0.000000 0.000000 0.000000 0.000000 -1.007299 -7.770874 9.427107 0.095226 0.552794 9.721728 1.664590 4.975721 15.629977 0.746320 -0.643483 -19.338871 0.000000 0.000000 0.000000 0.000000 0.000000 0.000000 0.000000 0.000000 0.000000 
-0.071078 88.495422 3.988291 -0.377701 -0.123011 -9.387722 1.517951 -0.202202 6.321651 -1.547067 0.278269 1.615005 0.364647 -1.371084 2.170164 -0.998986 -0.303816 3.510288 2.858589 1.657064 5.244791 1.399368 3.276614 -2.506084 -0.755819 -1.173962 -17.459080 0.000000 0.000000 0.000000 92.506615 -0.572182 9.515952 67.880112 -35.122158 4.111558 -0.006807 10.719772 21.420374 5.896521 15.764320 -5.230075 10.854437 -1.840078 39.813293 0.000002 0.000023 -26.556789 0.000014 0.000036 -18.303951 0.000011 -0.000000 -0.000027 15.290778 -0.126855 -8.413401 10.993059 -0.059873 0.025845 11.154745 -0.036518 0.001963 -0.000023 0.000023 -0.000025 15.000286 -0.042867 -9.298804 10.508247 -0.017395 0.003100 10.528994 -0.011466 -0.005827 0.000014 0.000055 0.000003 17.390177 0.032204 -8.570733 11.677925 0.039896 0.020285 11.676801 0.014781 0.025616 -0.000003 0.000890 0.000002 18.343859 0.080074 -9.519383 12.312353 0.058364 0.265289 12.099885 0.023727 0.220884 -0.000342 -0.000006 0.000016 0.000000 0.000000 0.000000 0.000000 0.000000 0.000000 -90.205170 0.105249 6.176620 -69.494415 28.125320 -4.411052 -0.796912 -3.903969 37.863716 1.659190 -16.615982 -16.496077 -10.090229 1.731988 40.157623 -0.000003 0.000025 -24.463240 0.000002 -0.000029 -17.063736 0.000033 -0.000004 0.001033 -12.894092 -0.071526 -9.052268 -9.359102 -0.057405 -0.129062 -9.711734 -0.045551 -0.089162 0.000019 0.000538 0.000012 -12.842150 -0.024629 -9.792376 -9.232705 -0.022255 -0.035867 -9.114699 -0.010128 -0.023638 0.001084 -0.000048 0.000067 -16.286566 0.065009 -10.092976 -11.316717 0.026521 -0.003678 -11.188992 0.014163 0.001831 -0.000017 0.000006 0.000009 -18.104307 0.170907 -10.736588 -12.588770 0.079446 0.033610 -12.554476 0.031231 -0.039674 0.000086 -0.000006 -0.000031 0.000000 0.000000 0.000000 0.000000 0.000000 0.000000 -2.407273 -12.053787 14.944993 -0.084555 -0.796656 4.200282 -1.019366 -9.243040 16.742105 -1.117764 1.081122 -16.945908 0.000000 0.000000 0.000000 0.000000 0.000000 0.000000 0.000000 0.000000 0.000000 0.811346 -4.477090 10.430008 0.108429 0.536915 9.700047 1.366719 2.530128 15.652870 0.601270 -0.471015 -20.200718 0.000000 0.000000 0.000000 0.000000 0.000000 0.000000 0.000000 0.000000 0.000000 
-0.078125 88.464783 3.892049 -0.305292 -0.031489 -9.226134 1.404051 -0.204733 6.267800 -1.617718 0.291962 1.803002 0.317333 -1.425141 2.008293 -0.947470 -0.354628 3.733008 2.867074 1.428208 5.240695 1.418554 3.104240 -2.440207 -0.707287 -1.153280 -17.604691 0.000000 0.000000 0.000000 92.277916 -0.559424 9.626909 67.749290 -35.118637 4.425121 -0.034995 10.886126 21.806389 5.647042 15.095678 -5.191946 10.871675 -1.832263 39.815979 0.000001 0.000039 -26.603209 0.000023 0.000031 -18.337984 0.000014 0.000002 -0.000037 15.361984 -0.117755 -8.173381 11.133259 -0.048591 -0.021375 11.305849 -0.022867 -0.040874 -0.000006 0.000037 -0.000020 15.050096 -0.039810 -9.066646 10.624001 -0.015494 -0.009406 10.634021 -0.008723 -0.014213 0.000014 0.000053 -0.000008 17.279413 0.022310 -8.417638 11.640280 0.038543 0.018672 11.652893 0.013501 0.026500 -0.000013 0.001012 -0.000004 18.135742 0.051452 -9.468308 12.204708 0.058009 0.242778 11.981289 0.019968 0.213970 -0.000483 0.000003 0.000016 0.000000 0.000000 0.000000 0.000000 0.000000 0.000000 -89.758369 0.026815 6.230653 -69.827278 27.644932 -4.166650 -0.688544 -3.723903 38.023663 2.139084 -15.824246 -16.379688 -10.016794 1.705114 40.197601 0.000006 0.000027 -24.313944 -0.000010 -0.000020 -16.969219 -0.000148 0.000002 0.000957 -12.506784 -0.058195 -8.462407 -9.509228 -0.053305 -0.121147 -9.837493 -0.040563 -0.090363 0.000023 0.000624 0.000012 -12.496166 -0.019744 -9.366560 -9.374228 -0.021712 -0.037273 -9.243780 -0.009186 -0.025291 0.001329 -0.000043 0.000051 -15.921963 0.061475 -9.937615 -11.359856 0.024875 -0.005114 -11.235419 0.012351 0.002267 0.000155 0.000014 0.000008 -17.718157 0.161169 -10.793095 -12.535206 0.066521 0.026105 -12.494260 0.020660 -0.038359 0.000163 0.000008 -0.000052 0.000000 0.000000 0.000000 0.000000 0.000000 0.000000 -2.529837 -12.324301 14.521806 -0.086427 -0.790601 4.494573 -0.880692 -9.368186 16.663908 -1.122768 1.090459 -16.895237 0.000000 0.000000 0.000000 0.000000 0.000000 0.000000 0.000000 0.000000 0.000000 0.776563 -4.407784 9.911291 0.109244 0.516659 10.080186 1.398713 2.425909 15.703810 0.595798 -0.465779 -20.211115 0.000000 0.000000 0.000000 0.000000 0.000000 0.000000 0.000000 0.000000 0.000000 
-0.129599 88.452744 3.807294 -0.291094 -0.025219 -9.102027 1.330822 -0.196364 6.234029 -1.673033 0.313607 1.914089 0.301591 -1.439409 1.925638 -0.959400 -0.372057 3.960937 2.811568 1.165094 5.220252 1.409170 2.810679 -2.443460 -0.630891 -1.152766 -17.802994 0.000000 0.000000 0.000000 92.118019 -0.556499 9.725780 67.503059 -35.193790 4.718168 -0.032278 11.183032 22.312340 5.652113 14.376060 -5.108533 10.844450 -1.818238 39.835411 0.000004 0.000037 -26.579685 0.000023 0.000031 -18.312452 0.000014 0.000002 -0.000036 15.381264 -0.113480 -7.796156 11.259207 -0.040529 -0.052340 11.428607 -0.013229 -0.067454 -0.000006 0.000039 -0.000020 15.007648 -0.038761 -8.722829 10.728077 -0.013867 -0.018222 10.735290 -0.006432 -0.020528 0.000014 0.000061 -0.000006 17.054909 0.017969 -8.194571 11.620164 0.037673 0.014387 11.636250 0.012850 0.024712 -0.000012 0.001077 -0.000003 17.811634 0.040880 -9.359614 12.108361 0.057660 0.215871 11.875041 0.018050 0.199728 -0.000588 0.000003 0.000010 0.000000 0.000000 0.000000 0.000000 0.000000 0.000000 -89.427216 -0.012522 6.210951 -69.563400 27.511393 -3.521071 -0.624750 -3.744081 38.117680 2.823598 -15.068068 -16.255299 -9.905175 1.677781 40.256840 0.000006 0.000028 -24.103262 -0.000003 -0.000023 -16.816328 -0.000264 0.000000 0.000948 -12.095568 -0.054887 -7.960004 -9.686597 -0.052311 -0.128337 -9.996019 -0.039219 -0.101918 0.000021 0.000743 0.000013 -12.125261 -0.018897 -8.962991 -9.536876 -0.022280 -0.043217 -9.410948 -0.009219 -0.030560 0.001544 -0.000043 0.000047 -15.560988 0.061435 -9.722099 -11.462212 0.023784 -0.004088 -11.326890 0.011356 0.004996 0.000333 0.000014 0.000008 -17.377739 0.163146 -10.685858 -12.557762 0.057155 0.024721 -12.517931 0.014346 -0.031564 0.000264 0.000007 -0.000052 0.000000 0.000000 0.000000 0.000000 0.000000 0.000000 -2.573293 -12.490584 14.165564 -0.089431 -0.785651 4.789005 -0.793371 -9.501234 16.557594 -1.119606 1.091971 -16.928196 0.000000 0.000000 0.000000 0.000000 0.000000 0.000000 0.000000 0.000000 0.000000 0.786074 -4.355382 9.497561 0.110522 0.513172 10.359681 1.420034 2.348743 15.697172 0.612332 -0.455742 -20.240475 0.000000 0.000000 0.000000 0.000000 0.000000 0.000000 0.000000 0.000000 0.000000 
